HIERARCHY
ROOT Hips
{
	OFFSET 0.000000 0.000000 0.000000 
	CHANNELS 6 Xposition Yposition Zposition Yrotation Zrotation Xrotation 
	JOINT Lumbar
	{
		OFFSET 0.000000 0.000000 0.000000 
		CHANNELS 3 Zrotation Xrotation Yrotation
		JOINT Neck
		{
			OFFSET 0.000000 0.445665 0.000000 
			CHANNELS 3 Zrotation Xrotation Yrotation
			End Site
			{
				OFFSET 0.000000 0.227535 0.000000 
			}
		}
		JOINT RightShoulder
		{
			OFFSET 0.019635 0.377685 0.194865 
			CHANNELS 3 Zrotation Xrotation Yrotation
			JOINT RightElbow
			{
				OFFSET 0.000000 -0.243375 0.000000 
				CHANNELS 2 Zrotation Yrotation
				JOINT RightWrist
				{
					OFFSET 0.000000 -0.264825 0.000000 
					CHANNELS 2 Zrotation Xrotation
					End Site
					{
						OFFSET 0.006600 -0.176220 0.000990 
					}
				}
			}
		}
		JOINT LeftShoulder
		{
			OFFSET 0.019635 0.377685 -0.194865 
			CHANNELS 3 Zrotation Xrotation Yrotation
			JOINT LeftElbow
			{
				OFFSET 0.000000 -0.243375 0.000000 
				CHANNELS 2 Zrotation Yrotation
				JOINT LeftWrist
				{
					OFFSET 0.000000 -0.264825 0.000000 
					CHANNELS 2 Zrotation Xrotation
					End Site
					{
						OFFSET 0.006600 -0.176220 -0.000990 
					}
				}
			}
		}
	}
	JOINT RightHip
	{
		OFFSET 0.052140 -0.069960 0.075570 
		CHANNELS 3 Zrotation Xrotation Yrotation
		JOINT RightKnee
		{
			OFFSET 0.000000 -0.402270 0.000000 
			CHANNELS 1 Zrotation
			JOINT RightAnkle
			{
				OFFSET 0.000000 -0.404085 0.000000 
				CHANNELS 3 Zrotation Xrotation Yrotation
				End Site
				{
					OFFSET 0.204105 -0.089430 0.008415 
				}
			}
		}
	}
	JOINT LeftHip
	{
		OFFSET 0.052140 -0.069960 -0.075570 
		CHANNELS 3 Zrotation Xrotation Yrotation
		JOINT LeftKnee
		{
			OFFSET 0.000000 -0.402270 0.000000 
			CHANNELS 1 Zrotation
			JOINT LeftAnkle
			{
				OFFSET 0.000000 -0.404085 0.000000 
				CHANNELS 3 Zrotation Xrotation Yrotation
				End Site
				{
					OFFSET 0.204105 -0.089430 -0.008415 
				}
			}
		}
	}
}
MOTION
Frames: 11
Frame Time: 0.02
0.60272 -0.08665 -0.03226 173.39385 0 3.24189 56.85682 12.3712 41.91351 -66.57769 38.96113 -0.53419 -7.0064 -18.32079 -27.14573 96.7518 112.9487 -34.9554 -7.09482 37.0855 8.33923 4.68191 39.56884 -109.32963 -43.33456 6.00316 93.44016 0.20065 -22.93607 -9.58262 -30.51192 2.19525 -12.32645 91.06927 6.97368 -3.05529 -7.44492 -7.5629 1.59123 4.04128
0.60268 -0.08679 -0.03275 173.41098 0 3.40922 56.87767 12.24966 42.11518 -66.57769 38.96113 -0.5376 -7.01626 -18.19918 -27.11557 96.82496 112.85643 -34.87228 -7.08851 37.0865 8.4536 4.57127 39.67818 -109.17217 -43.2214 5.99075 93.49145 0.23638 -22.60675 -9.7173 -29.63217 1.93967 -12.27958 91.0008 6.93894 -2.89641 -7.393 -7.49929 1.62493 3.76546
0.60262 -0.08696 -0.03328 173.43709 0 3.58592 56.90074 12.10561 42.27627 -66.57769 38.96113 -0.46889 -7.08752 -18.1182 -27.15544 96.94192 112.70363 -34.77303 -7.07556 37.1563 8.47812 4.49589 39.63232 -109.18 -43.23245 5.99035 93.57346 0.25525 -22.16671 -9.93447 -28.53377 1.62731 -12.24913 90.87995 6.89456 -2.84457 -7.24328 -7.42028 1.68763 3.6624
0.60256 -0.08711 -0.03378 173.46101 0 3.75417 56.92378 11.97399 42.45125 -66.57769 38.96113 -0.43609 -7.13001 -18.01834 -27.16215 97.03697 112.58536 -34.6846 -7.06631 37.19457 8.54238 4.41135 39.65337 -109.11957 -43.19242 5.98781 93.62119 0.28517 -21.8163 -10.07593 -27.55155 1.34607 -12.20248 90.7856 6.85313 -2.75557 -7.14054 -7.35499 1.735 3.49239
0.60254 -0.0873 -0.03432 173.47617 0 3.94143 56.94266 11.83304 42.64692 -66.57769 38.96113 -0.3903 -7.17624 -17.92008 -27.17432 97.14059 112.43785 -34.58118 -7.05419 37.23065 8.61276 4.2962 39.6963 -109.02122 -43.12151 5.9716 93.75265 0.30281 -21.3004 -10.3754 -26.49322 1.04103 -12.19106 90.68684 6.81815 -2.61979 -7.03911 -7.25843 1.79137 3.26685
0.60243 -0.08741 -0.03478 173.51166 0 4.09052 56.97056 11.70688 42.78937 -66.57769 38.96113 -0.35408 -7.22951 -17.82792 -27.19233 97.23713 112.33634 -34.50508 -7.04642 37.28841 8.64916 4.25157 39.65595 -109.04159 -43.14473 5.98566 93.7205 0.34053 -21.09766 -10.37143 -25.54615 0.77316 -12.11196 90.58303 6.76778 -2.60268 -6.90856 -7.22367 1.8362 3.19748
0.60205 -0.0873 -0.035 173.60517 0 4.13595 57.02489 11.61837 42.7939 -66.57769 38.96113 -0.36532 -7.2837 -17.74646 -27.20303 97.29811 112.38135 -34.51037 -7.05293 37.39571 8.60468 4.42161 39.4015 -109.38786 -43.43443 6.0919 93.19565 0.44697 -21.84982 -9.45005 -24.92627 0.61502 -11.82756 90.46691 6.67103 -2.93163 -6.70317 -7.37279 1.83829 3.55631
0.60158 -0.08712 -0.03513 173.71815 0 4.14192 57.08781 11.54691 42.7463 -66.57769 38.96112 -0.38804 -7.34338 -17.66931 -27.21825 97.35128 112.47385 -34.54337 -7.06394 37.52213 8.53014 4.65722 39.07074 -109.84372 -43.81045 6.22623 92.51121 0.57241 -22.91017 -8.23131 -24.43211 0.49758 -11.47733 90.34833 6.56015 -3.36889 -6.47314 -7.58329 1.82828 4.06111
0.60116 -0.08698 -0.03529 173.81977 0 4.16297 57.14559 11.47337 42.72285 -66.57769 38.96112 -0.40328 -7.40289 -17.58747 -27.23557 97.41154 112.5416 -34.56244 -7.07249 37.63566 8.47538 4.84402 38.78919 -110.22435 -44.12297 6.34013 91.92152 0.68288 -23.78856 -7.18723 -23.90314 0.36613 -11.16658 90.23722 6.45968 -3.72694 -6.26468 -7.76015 1.82641 4.47404
0.6007 -0.08681 -0.03549 173.93255 0 4.19576 57.20897 11.37563 42.69576 -66.57769 38.96112 -0.42561 -7.45507 -17.51768 -27.23805 97.45873 112.62078 -34.58665 -7.08255 37.76791 8.39303 5.11002 38.44424 -110.71279 -44.53749 6.48646 91.23888 0.81918 -24.83897 -5.97887 -23.27372 0.21391 -10.81556 90.09817 6.34204 -4.21293 -6.00999 -7.96108 1.81498 4.99806
0.6003 -0.08669 -0.03558 174.02626 0 4.19545 57.26231 11.33202 42.66479 -66.57769 38.96112 -0.43677 -7.52259 -17.42439 -27.27129 97.53028 112.68804 -34.60686 -7.09063 37.86652 8.36048 5.22899 38.21121 -111.00693 -44.76423 6.57218 90.7118 0.90686 -25.6069 -5.0414 -22.8844 0.11515 -10.53317 90.0167 6.25696 -4.45974 -5.84605 -8.12611 1.81952 5.32633
